<svg xmlns="http://www.w3.org/2000/svg" xmlns:xlink="http://www.w3.org/1999/xlink" version="1.1" width="256" height="256" viewBox="0 0 256 256" xml:space="preserve">

<defs>
</defs>
<g style="stroke: none; stroke-width: 0; stroke-dasharray: none; stroke-linecap: butt; stroke-linejoin: miter; stroke-miterlimit: 10; fill: none; fill-rule: nonzero; opacity: 1;" transform="translate(1.4065934065934016 1.4065934065934016) scale(2.81 2.81)" >
	<path d="M 79.383 14.129 V 8.097 c 0 -2.934 -2.379 -5.313 -5.313 -5.313 H 38.119 v 11.346 H 79.383 z" style="stroke: none; stroke-width: 1; stroke-dasharray: none; stroke-linecap: butt; stroke-linejoin: miter; stroke-miterlimit: 10; fill: rgb(255,186,87); fill-rule: nonzero; opacity: 1;" transform=" matrix(1 0 0 1 0 0) " stroke-linecap="round" />
	<path d="M 80.406 14.129 H 54.025 c -2.891 0 -5.659 -1.169 -7.675 -3.242 l -6.465 -6.646 C 37.87 2.169 35.101 1 32.21 1 H 9.609 c -3.281 0 -5.94 2.66 -5.94 5.94 v 7.189 v 44.958 c 0 3.281 2.66 5.94 5.94 5.94 H 35.88 c -0.006 -0.134 -0.02 -0.267 -0.02 -0.403 c 0 -5.04 4.1 -9.14 9.141 -9.14 c 5.04 0 9.141 4.1 9.141 9.14 c 0 0.136 -0.014 0.268 -0.02 0.403 h 26.286 c 3.281 0 5.94 -2.66 5.94 -5.94 V 20.07 C 86.346 16.789 83.687 14.129 80.406 14.129 z" style="stroke: none; stroke-width: 1; stroke-dasharray: none; stroke-linecap: butt; stroke-linejoin: miter; stroke-miterlimit: 10; fill: rgb(255,226,122); fill-rule: nonzero; opacity: 1;" transform=" matrix(1 0 0 1 0 0) " stroke-linecap="round" />
	<path d="M 17.809 17.786 L 17.809 17.786 c -0.417 -0.173 -0.45 -0.559 -0.45 -0.673 c 0 -0.114 0.032 -0.5 0.449 -0.673 c 0.21 -0.087 0.374 -0.251 0.461 -0.461 c 0.087 -0.21 0.087 -0.441 0 -0.651 l -0.554 -1.338 c -0.18 -0.433 -0.678 -0.64 -1.112 -0.46 c -0.417 0.173 -0.713 -0.077 -0.793 -0.158 c -0.081 -0.081 -0.331 -0.376 -0.158 -0.793 c 0.087 -0.21 0.087 -0.441 0 -0.651 c -0.087 -0.21 -0.251 -0.374 -0.46 -0.461 l -1.338 -0.554 c -0.433 -0.179 -0.932 0.027 -1.112 0.461 c -0.173 0.416 -0.558 0.449 -0.672 0.449 s -0.5 -0.032 -0.673 -0.449 c -0.087 -0.21 -0.251 -0.374 -0.461 -0.461 c -0.21 -0.087 -0.441 -0.087 -0.652 0 l -1.338 0.554 c -0.21 0.087 -0.374 0.251 -0.461 0.461 c -0.087 0.21 -0.087 0.441 0 0.651 c 0.173 0.417 -0.077 0.713 -0.158 0.793 c -0.081 0.081 -0.376 0.331 -0.793 0.158 c -0.21 -0.087 -0.441 -0.087 -0.652 0 c -0.21 0.087 -0.374 0.251 -0.461 0.461 l -0.554 1.338 c -0.087 0.21 -0.087 0.441 0 0.652 c 0.087 0.21 0.251 0.374 0.461 0.461 c 0.417 0.173 0.449 0.559 0.449 0.673 s -0.032 0.5 -0.45 0.673 c -0.433 0.18 -0.64 0.679 -0.46 1.112 l 0.554 1.338 c 0.087 0.21 0.251 0.374 0.461 0.461 c 0.21 0.087 0.441 0.087 0.651 0 c 0.417 -0.172 0.713 0.077 0.793 0.158 c 0.081 0.081 0.33 0.376 0.158 0.793 c -0.18 0.433 0.027 0.932 0.461 1.112 l 1.338 0.554 c 0.105 0.043 0.215 0.065 0.326 0.065 c 0.11 0 0.221 -0.022 0.326 -0.065 c 0.21 -0.087 0.374 -0.251 0.461 -0.46 c 0.173 -0.417 0.559 -0.449 0.673 -0.449 l 0 0 c 0.114 0 0.5 0.032 0.673 0.45 c 0.18 0.433 0.679 0.639 1.112 0.46 l 1.339 -0.554 c 0.433 -0.18 0.64 -0.679 0.46 -1.112 c -0.173 -0.417 0.077 -0.713 0.158 -0.793 c 0.081 -0.081 0.376 -0.331 0.793 -0.158 c 0.434 0.179 0.932 -0.027 1.112 -0.461 l 0.554 -1.338 C 18.448 18.464 18.242 17.965 17.809 17.786 z M 12.068 19.463 c -1.296 0 -2.35 -1.054 -2.35 -2.35 s 1.054 -2.35 2.35 -2.35 s 2.35 1.054 2.35 2.35 S 13.364 19.463 12.068 19.463 z" style="stroke: none; stroke-width: 1; stroke-dasharray: none; stroke-linecap: butt; stroke-linejoin: miter; stroke-miterlimit: 10; fill: rgb(255,71,85); fill-rule: nonzero; opacity: 1;" transform=" matrix(3.89 0 0 3.89 -1.9444444444444287 -1.9444444444444287) " stroke-linecap="round" />
	<path d="M 80.405 66.039 h -6.607 c -0.553 0 -1 -0.447 -1 -1 s 0.447 -1 1 -1 h 6.607 c 2.725 0 4.941 -2.217 4.941 -4.941 V 20.073 c 0 -2.725 -2.217 -4.941 -4.941 -4.941 H 54.02 c -3.143 0 -6.202 -1.292 -8.394 -3.545 L 39.16 4.939 C 37.343 3.071 34.806 2 32.2 2 H 9.595 C 6.871 2 4.654 4.217 4.654 6.941 v 52.156 c 0 2.725 2.217 4.941 4.941 4.941 h 6.735 c 0.552 0 1 0.447 1 1 s -0.448 1 -1 1 H 9.595 c -3.828 0 -6.941 -3.114 -6.941 -6.941 V 6.941 C 2.654 3.114 5.768 0 9.595 0 H 32.2 c 3.143 0 6.202 1.292 8.394 3.545 l 6.466 6.647 c 1.817 1.868 4.354 2.939 6.96 2.939 h 26.386 c 3.827 0 6.941 3.114 6.941 6.941 v 39.024 C 87.347 62.925 84.232 66.039 80.405 66.039 z" style="stroke: none; stroke-width: 1; stroke-dasharray: none; stroke-linecap: butt; stroke-linejoin: miter; stroke-miterlimit: 10; fill: rgb(0,0,0); fill-rule: nonzero; opacity: 1;" transform=" matrix(1 0 0 1 0 0) " stroke-linecap="round" />
	<path d="M 79.382 15.132 c -0.553 0 -1 -0.448 -1 -1 V 8.098 c 0 -2.379 -1.936 -4.314 -4.314 -4.314 h -35.96 c -0.552 0 -1 -0.448 -1 -1 s 0.448 -1 1 -1 h 35.96 c 3.481 0 6.314 2.833 6.314 6.314 v 6.034 C 80.382 14.684 79.935 15.132 79.382 15.132 z" style="stroke: none; stroke-width: 1; stroke-dasharray: none; stroke-linecap: butt; stroke-linejoin: miter; stroke-miterlimit: 10; fill: rgb(0,0,0); fill-rule: nonzero; opacity: 1;" transform=" matrix(1 0 0 1 0 0) " stroke-linecap="round" />
	<path d="M 13.527 23.636 c -0.145 0 -0.288 -0.029 -0.424 -0.085 c -0.274 -0.113 -0.487 -0.326 -0.6 -0.599 c -0.109 -0.262 -0.34 -0.291 -0.435 -0.291 s -0.326 0.028 -0.435 0.291 c -0.234 0.564 -0.884 0.832 -1.448 0.599 l -1.339 -0.554 c -0.564 -0.234 -0.833 -0.884 -0.599 -1.448 c 0.109 -0.263 -0.035 -0.446 -0.102 -0.513 c -0.067 -0.067 -0.252 -0.211 -0.513 -0.102 c -0.565 0.233 -1.214 -0.036 -1.448 -0.6 L 5.63 18.996 c -0.233 -0.565 0.035 -1.214 0.599 -1.448 l 0 0 c 0.263 -0.109 0.291 -0.34 0.291 -0.435 c 0 -0.095 -0.028 -0.326 -0.29 -0.435 c -0.274 -0.113 -0.486 -0.326 -0.6 -0.6 c -0.113 -0.273 -0.113 -0.575 0 -0.848 l 0.554 -1.338 c 0.234 -0.564 0.884 -0.833 1.448 -0.599 c 0.263 0.109 0.446 -0.035 0.513 -0.102 c 0.067 -0.067 0.211 -0.251 0.102 -0.513 c -0.113 -0.274 -0.113 -0.575 0 -0.848 c 0.113 -0.273 0.326 -0.486 0.599 -0.6 l 1.338 -0.554 c 0.565 -0.234 1.214 0.035 1.448 0.6 c 0.109 0.262 0.34 0.29 0.435 0.29 s 0.326 -0.028 0.435 -0.29 c 0.113 -0.274 0.326 -0.487 0.6 -0.6 c 0.274 -0.113 0.575 -0.113 0.848 0 l 1.338 0.554 c 0.273 0.113 0.486 0.326 0.6 0.6 c 0.113 0.274 0.113 0.575 0 0.848 c -0.109 0.262 0.035 0.446 0.102 0.513 c 0.067 0.067 0.25 0.21 0.513 0.102 c 0.274 -0.113 0.575 -0.113 0.848 0 c 0.274 0.113 0.487 0.326 0.6 0.6 l 0.554 1.338 c 0.113 0.274 0.113 0.575 0 0.848 c -0.113 0.274 -0.326 0.487 -0.6 0.6 c -0.262 0.109 -0.29 0.34 -0.29 0.435 c 0 0.095 0.028 0.326 0.291 0.435 c 0.273 0.113 0.486 0.326 0.599 0.6 c 0.113 0.274 0.113 0.575 0 0.848 l -0.554 1.338 c -0.113 0.274 -0.326 0.487 -0.6 0.6 c -0.273 0.113 -0.574 0.114 -0.848 0 c -0.261 -0.108 -0.446 0.036 -0.513 0.102 c -0.067 0.067 -0.21 0.251 -0.102 0.513 c 0.234 0.565 -0.035 1.214 -0.6 1.448 l -1.338 0.554 C 13.815 23.607 13.672 23.636 13.527 23.636 z M 12.068 22.147 c 0.318 0 0.724 0.16 0.91 0.608 c 0.061 0.146 0.175 0.261 0.322 0.321 c 0.147 0.061 0.308 0.061 0.455 0 l 1.338 -0.554 c 0.303 -0.126 0.447 -0.474 0.322 -0.776 c -0.186 -0.448 -0.012 -0.849 0.213 -1.073 c 0.225 -0.224 0.626 -0.399 1.073 -0.214 c 0.147 0.061 0.308 0.061 0.455 0 c 0.147 -0.061 0.261 -0.175 0.322 -0.322 l 0.554 -1.338 c 0.061 -0.146 0.061 -0.307 0 -0.454 c -0.061 -0.147 -0.175 -0.261 -0.321 -0.322 c -0.448 -0.186 -0.608 -0.592 -0.608 -0.91 c 0 -0.318 0.16 -0.724 0.608 -0.91 c 0.147 -0.061 0.261 -0.175 0.322 -0.322 c 0.061 -0.147 0.061 -0.308 0 -0.455 l -0.554 -1.338 c -0.061 -0.147 -0.175 -0.261 -0.322 -0.322 s -0.308 -0.061 -0.455 0 c -0.449 0.186 -0.849 0.012 -1.073 -0.213 c -0.225 -0.225 -0.399 -0.625 -0.214 -1.073 c 0.061 -0.147 0.061 -0.308 0 -0.455 c -0.061 -0.147 -0.175 -0.261 -0.322 -0.322 l -1.338 -0.554 c -0.147 -0.061 -0.308 -0.06 -0.455 0 c -0.147 0.061 -0.261 0.175 -0.322 0.321 c -0.185 0.448 -0.592 0.608 -0.91 0.608 c -0.318 0 -0.724 -0.16 -0.91 -0.608 c -0.125 -0.302 -0.473 -0.447 -0.776 -0.322 l -1.338 0.554 c -0.146 0.061 -0.261 0.175 -0.321 0.321 c -0.061 0.147 -0.061 0.308 0 0.455 c 0.185 0.448 0.011 0.848 -0.214 1.073 c -0.225 0.225 -0.625 0.4 -1.073 0.214 c -0.302 -0.125 -0.651 0.019 -0.776 0.321 l -0.554 1.338 c -0.061 0.147 -0.061 0.308 0 0.455 c 0.061 0.147 0.175 0.261 0.321 0.322 c 0.449 0.186 0.608 0.592 0.608 0.91 c 0 0.318 -0.16 0.724 -0.608 0.91 l -0.098 -0.237 l 0.098 0.238 c -0.302 0.125 -0.446 0.473 -0.321 0.776 l 0.554 1.338 c 0.126 0.302 0.474 0.447 0.776 0.322 c 0.563 -0.233 0.964 0.104 1.073 0.213 c 0.225 0.225 0.4 0.625 0.214 1.074 c -0.125 0.303 0.019 0.651 0.321 0.776 l 1.338 0.554 c 0.302 0.125 0.651 -0.019 0.776 -0.321 C 11.344 22.307 11.75 22.147 12.068 22.147 z M 12.068 19.72 c -1.437 0 -2.607 -1.169 -2.607 -2.607 c 0 -1.437 1.169 -2.607 2.607 -2.607 c 1.437 0 2.607 1.169 2.607 2.607 C 14.675 18.55 13.505 19.72 12.068 19.72 z M 12.068 15.02 c -1.154 0 -2.093 0.939 -2.093 2.093 c 0 1.154 0.939 2.093 2.093 2.093 s 2.093 -0.939 2.093 -2.093 C 14.161 15.959 13.222 15.02 12.068 15.02 z" style="stroke: none; stroke-width: 1; stroke-dasharray: none; stroke-linecap: butt; stroke-linejoin: miter; stroke-miterlimit: 10; fill: rgb(0,0,0); fill-rule: nonzero; opacity: 1;" transform=" matrix(3.89 0 0 3.89 -1.9444444444444287 -1.9444444444444287) " stroke-linecap="round" />
</g>
</svg>