<svg xml:space="preserve" viewBox="0 0 100 100" y="0" x="0" xmlns="http://www.w3.org/2000/svg" id="圖層_1" version="1.1" preserveAspectRatio="xMidYMid" width="200" height="200" xmlns:xlink="http://www.w3.org/1999/xlink" style="margin-top:0px;margin-right:0px;margin-bottom:0px;margin-left:0px;display:block;shape-rendering:auto;background-position-x:0%;background-position-y:0%;background-size:auto;background-origin:padding-box;background-clip:border-box;fill:rgb(0, 0, 0);stroke:none;transform:none;opacity:1;background:scroll rgb(255, 255, 255) none  repeat;width:200px;height:200px;;animation:none"><g class="ldl-scale" style="transform-origin:50px 50px;transform:matrix(0.8, 0, 0, 0.8, 0, 0);fill:rgb(0, 0, 0);stroke:none;opacity:1;;animation:none"><g class="ldl-ani" style="fill:rgb(0, 0, 0);stroke:none;transform:none;opacity:1;;animation:none"><g class="ldl-layer" style="fill:rgb(0, 0, 0);stroke:none;transform:none;opacity:1;;animation:none"><g class="ldl-ani" style="transform:matrix(1, 0, 0, 1, 0, 0);transform-box:view-box;opacity:1;animation-name:animate;animation-duration:1s;animation-timing-function:linear;animation-delay:-0.666667s;animation-iteration-count:infinite;animation-direction:normal;animation-fill-mode:forwards;animation-play-state:paused;transform-origin:50px 50px;fill:rgb(0, 0, 0);stroke:none;;animation:none"><path fill="#333" d="M45.5 8.2l-29.4 17c-2.8 1.6-4.5 4.6-4.5 7.8v34c0 3.2 1.7 6.2 4.5 7.8l29.4 17c2.8 1.6 6.2 1.6 9 0l29.4-17c2.8-1.6 4.5-4.6 4.5-7.8V33c0-3.2-1.7-6.2-4.5-7.8l-29.4-17c-2.8-1.6-6.2-1.6-9 0z" style="stroke-width:1px;fill:rgb(51, 51, 51);stroke:none;transform:none;opacity:1;;animation:none"></path></g></g>
<g class="ldl-layer" style="fill:rgb(0, 0, 0);stroke:none;transform:none;opacity:1;;animation:none"><g class="ldl-ani" style="transform:matrix(1, 0, 0, 1, 0, 0);transform-box:view-box;opacity:1;animation-name:animate;animation-duration:1s;animation-timing-function:linear;animation-delay:-0.833333s;animation-iteration-count:infinite;animation-direction:normal;animation-fill-mode:forwards;animation-play-state:paused;transform-origin:50px 50px;fill:rgb(0, 0, 0);stroke:none;;animation:none"><path fill="#77a4bd" d="M75 54.9l-7.8-8.2-8.2 7.7 4.5.1c-1.6 4.8-5.7 8.5-10.8 9.5-3.7.7-7.5 0-10.7-2.2l-3.7 5.5c3.5 2.3 7.5 3.6 11.6 3.6 1.3 0 2.7-.1 4-.4 8.1-1.6 14.4-7.7 16.3-15.7l4.8.1z" style="stroke-width:1px;fill:rgb(119, 164, 189);stroke:none;transform:none;opacity:1;;animation:none"></path></g></g>
<g class="ldl-layer" style="fill:rgb(0, 0, 0);stroke:none;transform:none;opacity:1;;animation:none"><g class="ldl-ani" style="transform:matrix(1, 0, 0, 1, 0, 0);transform-box:view-box;opacity:1;animation-name:animate;animation-duration:1s;animation-timing-function:linear;animation-delay:-1s;animation-iteration-count:infinite;animation-direction:normal;animation-fill-mode:forwards;animation-play-state:paused;transform-origin:50px 50px;fill:rgb(0, 0, 0);stroke:none;;animation:none"><path fill="#a0c8d7" d="M46 29.5c-8.1 1.6-14.4 7.7-16.3 15.7l-4.7-.1 7.8 8.2 8.2-7.8-4.5-.1c1.6-4.8 5.7-8.5 10.8-9.5 3.7-.7 7.5 0 10.7 2.2l3.7-5.5c-4.7-3-10.2-4.1-15.7-3.1z" style="stroke-width:1px;fill:rgb(160, 200, 215);stroke:none;transform:none;opacity:1;;animation:none"></path></g></g>
<metadata xmlns:d="https://loading.io/stock/" style="fill:rgb(0, 0, 0);stroke:none;transform:none;opacity:1;;animation:none"></metadata></g></g>
<STYLE type="text/css">@keyframes animate { 0.00% {animation-timing-function: cubic-bezier(0.33,0.00,0.67,0.00);transform: translate(0.00px,0.00px) rotate(0.00deg) scale(1.00, 1.00) skew(0deg, 0.00deg) ;opacity: 1.00;}50.00% {animation-timing-function: cubic-bezier(0.33,0.00,0.67,0.00);transform: translate(0.00px,0.00px) rotate(0.00deg) ;}100.00% {animation-timing-function: cubic-bezier(0.33,0.00,0.67,0.00);transform: translate(0.00px,0.00px) rotate(0.00deg) ;} }</STYLE><!-- [ldio] generated by https://loading.io --></svg>